<?xml version="1.0" encoding="utf-8"?><!DOCTYPE svg PUBLIC "-//W3C//DTD SVG 1.1//EN" "http://www.w3.org/Graphics/SVG/1.1/DTD/svg11.dtd"><svg xmlns="http://www.w3.org/2000/svg" viewBox="0 0 61 61" shape-rendering="crispEdges"><path fill="#FFFFFF" d="M0 0h61v61H0z"/><path stroke="#0A1539" d="M2 2.5h7m2 0h2m2 0h1m2 0h1m4 0h1m1 0h2m3 0h2m1 0h3m3 0h1m3 0h4m1 0h2m2 0h7M2 3.5h1m5 0h1m3 0h3m1 0h3m6 0h2m6 0h1m1 0h2m2 0h4m1 0h1m1 0h2m1 0h1m2 0h1m5 0h1M2 4.5h1m1 0h3m1 0h1m3 0h1m1 0h3m1 0h2m1 0h2m1 0h2m1 0h1m3 0h1m2 0h1m3 0h1m1 0h1m2 0h1m1 0h2m1 0h2m2 0h1m1 0h3m1 0h1M2 5.5h1m1 0h3m1 0h1m4 0h1m2 0h2m1 0h4m1 0h1m1 0h1m1 0h4m5 0h1m1 0h2m2 0h3m3 0h1m2 0h1m1 0h3m1 0h1M2 6.5h1m1 0h3m1 0h1m1 0h3m1 0h5m4 0h1m1 0h2m1 0h5m1 0h1m3 0h4m3 0h1m1 0h1m1 0h1m2 0h1m1 0h3m1 0h1M2 7.5h1m5 0h1m2 0h1m2 0h1m1 0h1m1 0h2m1 0h1m2 0h1m1 0h1m1 0h1m3 0h1m1 0h4m2 0h3m1 0h1m1 0h1m1 0h1m3 0h1m5 0h1M2 8.5h7m1 0h1m1 0h1m1 0h1m1 0h1m1 0h1m1 0h1m1 0h1m1 0h1m1 0h1m1 0h1m1 0h1m1 0h1m1 0h1m1 0h1m1 0h1m1 0h1m1 0h1m1 0h1m1 0h1m1 0h1m1 0h1m1 0h7M10 9.5h2m1 0h1m1 0h1m1 0h1m2 0h2m1 0h1m2 0h1m1 0h1m3 0h2m3 0h1m1 0h1m2 0h1m3 0h1M4 10.5h2m2 0h3m6 0h1m3 0h1m1 0h3m2 0h5m1 0h1m1 0h2m1 0h4m3 0h7m1 0h1M2 11.5h1m7 0h1m1 0h1m1 0h1m1 0h2m1 0h1m3 0h1m4 0h1m4 0h3m1 0h1m1 0h2m1 0h3m1 0h2m1 0h3m4 0h3M3 12.5h2m1 0h9m1 0h1m2 0h2m1 0h1m1 0h1m3 0h1m1 0h3m3 0h3m1 0h1m2 0h3m1 0h1m2 0h1m2 0h1m1 0h2m1 0h1M4 13.5h1m4 0h3m1 0h2m1 0h1m1 0h4m2 0h2m3 0h2m1 0h5m1 0h1m4 0h4m1 0h1m4 0h1m1 0h1m1 0h2M2 14.5h2m1 0h4m1 0h1m2 0h1m2 0h3m2 0h1m3 0h1m2 0h1m1 0h1m2 0h2m1 0h1m2 0h1m3 0h3m2 0h1m2 0h1M2 15.5h2m2 0h2m1 0h2m3 0h2m1 0h2m1 0h1m1 0h1m2 0h3m1 0h2m4 0h1m1 0h1m1 0h2m4 0h2m2 0h1m1 0h2m4 0h1M2 16.5h1m3 0h4m4 0h2m4 0h1m2 0h1m1 0h4m1 0h1m2 0h3m1 0h1m1 0h5m3 0h1m2 0h6M2 17.5h3m4 0h1m1 0h1m2 0h1m1 0h2m1 0h3m5 0h5m1 0h1m3 0h1m1 0h6m1 0h1m3 0h1m1 0h1m1 0h4M2 18.5h4m1 0h2m2 0h2m2 0h1m3 0h1m1 0h1m1 0h1m1 0h1m1 0h2m3 0h1m1 0h1m1 0h1m1 0h1m4 0h2m1 0h1m2 0h5m1 0h2M2 19.5h2m1 0h1m3 0h2m2 0h1m2 0h2m1 0h4m3 0h2m1 0h5m1 0h1m1 0h2m4 0h1m1 0h2m1 0h1m4 0h1m3 0h2M4 20.5h1m2 0h3m2 0h3m4 0h1m1 0h1m2 0h1m2 0h1m1 0h3m4 0h3m1 0h2m1 0h1m4 0h6m1 0h3M2 21.5h3m1 0h1m2 0h1m6 0h1m3 0h2m1 0h2m1 0h1m2 0h2m2 0h2m1 0h4m1 0h2m1 0h1m3 0h1m2 0h1m2 0h1m2 0h2M2 22.5h1m1 0h5m1 0h2m2 0h1m7 0h5m1 0h1m2 0h2m2 0h2m3 0h3m1 0h1m2 0h2m1 0h1m2 0h2m1 0h2M2 23.5h1m1 0h2m6 0h1m3 0h1m3 0h2m1 0h2m1 0h1m1 0h1m5 0h4m1 0h1m1 0h1m1 0h2m4 0h3m1 0h1m1 0h1m2 0h1M3 24.5h2m1 0h1m1 0h3m1 0h1m5 0h1m1 0h1m1 0h2m1 0h1m1 0h3m2 0h1m6 0h1m1 0h1m1 0h4m1 0h4m4 0h3M2 25.5h2m1 0h1m5 0h3m2 0h1m1 0h1m1 0h1m1 0h1m1 0h1m1 0h4m1 0h4m2 0h1m2 0h3m3 0h2m1 0h3m1 0h1m1 0h1m1 0h1M3 26.5h3m2 0h2m3 0h2m4 0h1m4 0h1m1 0h2m1 0h4m2 0h2m2 0h3m1 0h3m2 0h2M2 27.5h2m3 0h1m2 0h1m1 0h1m3 0h1m2 0h3m4 0h3m3 0h3m1 0h2m1 0h3m1 0h1m1 0h2m2 0h1m1 0h3m2 0h3M2 28.5h2m1 0h6m1 0h1m1 0h2m3 0h1m3 0h10m1 0h1m1 0h1m3 0h1m1 0h2m3 0h1m1 0h6M3 29.5h2m1 0h1m3 0h1m4 0h1m1 0h3m2 0h1m1 0h1m3 0h1m3 0h1m2 0h1m1 0h3m1 0h2m1 0h3m2 0h2m3 0h3m1 0h1M2 30.5h1m2 0h2m1 0h1m1 0h1m3 0h1m2 0h1m1 0h4m2 0h2m1 0h1m1 0h1m1 0h1m1 0h1m3 0h1m1 0h2m1 0h4m1 0h3m1 0h1m1 0h3m1 0h1M6 31.5h1m3 0h2m2 0h1m2 0h1m2 0h1m2 0h2m1 0h1m1 0h1m3 0h1m1 0h2m1 0h2m3 0h2m2 0h3m1 0h1m3 0h5M3 32.5h1m1 0h8m2 0h1m1 0h2m1 0h1m4 0h2m1 0h5m3 0h1m3 0h1m4 0h2m1 0h7m2 0h1M2 33.5h1m2 0h2m5 0h1m1 0h4m1 0h4m1 0h6m2 0h1m2 0h1m1 0h1m1 0h1m2 0h1m2 0h1m1 0h1m2 0h1m2 0h2m2 0h1M5 34.5h11m1 0h2m2 0h1m1 0h4m1 0h1m1 0h3m1 0h3m3 0h3m5 0h1m2 0h1m1 0h1m1 0h3M4 35.5h1m2 0h1m6 0h1m7 0h2m5 0h1m2 0h1m3 0h4m1 0h1m1 0h3m4 0h2m1 0h1m1 0h4M3 36.5h2m1 0h3m1 0h1m1 0h1m4 0h2m1 0h2m1 0h1m7 0h2m2 0h1m1 0h2m2 0h1m1 0h3m2 0h2m1 0h3m1 0h1m1 0h2M2 37.5h6m1 0h1m1 0h5m3 0h3m1 0h1m3 0h3m1 0h1m5 0h2m4 0h5m2 0h6M2 38.5h1m2 0h4m1 0h1m4 0h1m1 0h1m1 0h1m2 0h3m1 0h1m2 0h2m2 0h1m3 0h1m1 0h1m7 0h5m1 0h2m3 0h1M6 39.5h1m2 0h1m2 0h1m1 0h1m1 0h2m4 0h1m2 0h1m1 0h1m3 0h1m1 0h2m1 0h1m2 0h3m3 0h1m4 0h4m1 0h1m1 0h1M3 40.5h1m2 0h1m1 0h1m2 0h2m2 0h2m3 0h2m1 0h2m1 0h1m4 0h1m2 0h1m2 0h2m1 0h2m2 0h1m1 0h2m1 0h1m1 0h1m1 0h2m1 0h1M2 41.5h3m2 0h1m1 0h4m2 0h1m3 0h2m1 0h3m2 0h1m1 0h2m2 0h1m2 0h1m5 0h2m1 0h1m2 0h2m4 0h1m1 0h2M8 42.5h2m1 0h1m3 0h2m2 0h3m1 0h5m2 0h3m2 0h2m2 0h3m4 0h1m1 0h11M3 43.5h2m1 0h1m2 0h2m2 0h1m3 0h1m1 0h1m1 0h7m1 0h1m2 0h2m1 0h1m2 0h2m1 0h1m1 0h1m3 0h1m3 0h1m1 0h2m3 0h1M6 44.5h1m1 0h1m4 0h1m1 0h4m4 0h1m2 0h1m2 0h3m1 0h4m1 0h2m2 0h3m2 0h1m1 0h1m1 0h1m1 0h1m1 0h1m1 0h1M3 45.5h1m2 0h2m1 0h1m1 0h2m4 0h3m2 0h2m7 0h1m3 0h3m2 0h3m1 0h2m2 0h1m1 0h2m2 0h1m2 0h2M2 46.5h1m3 0h1m1 0h2m2 0h8m3 0h3m1 0h4m3 0h1m2 0h1m1 0h6m5 0h1m1 0h1m3 0h1M2 47.5h3m4 0h2m2 0h3m1 0h2m2 0h1m1 0h4m1 0h1m2 0h1m3 0h4m4 0h3m1 0h1m1 0h1m2 0h1m2 0h1m2 0h1M2 48.5h1m1 0h1m2 0h3m2 0h3m1 0h1m2 0h1m2 0h1m1 0h3m1 0h1m3 0h2m5 0h1m2 0h4m2 0h1m1 0h1m1 0h3m2 0h2M2 49.5h5m2 0h2m8 0h1m1 0h1m1 0h1m2 0h2m1 0h1m1 0h1m3 0h2m3 0h2m1 0h1m2 0h1m1 0h3m1 0h1m1 0h1m3 0h1M8 50.5h2m3 0h4m2 0h1m1 0h1m1 0h3m1 0h6m2 0h2m1 0h1m1 0h1m2 0h3m1 0h1m2 0h6m1 0h1M10 51.5h1m2 0h1m1 0h6m1 0h1m1 0h2m1 0h2m3 0h1m1 0h1m1 0h1m2 0h1m1 0h1m3 0h2m3 0h1m3 0h1m1 0h1M2 52.5h7m1 0h3m2 0h1m1 0h1m1 0h2m1 0h2m1 0h2m1 0h1m1 0h1m1 0h2m1 0h1m1 0h1m1 0h1m2 0h3m5 0h1m1 0h1m1 0h2M2 53.5h1m5 0h1m2 0h1m1 0h2m3 0h1m1 0h1m4 0h1m1 0h2m3 0h3m2 0h2m3 0h1m2 0h2m1 0h1m1 0h1m3 0h3M2 54.5h1m1 0h3m1 0h1m2 0h2m2 0h2m1 0h2m1 0h4m1 0h7m1 0h2m3 0h1m1 0h1m3 0h10m1 0h1M2 55.5h1m1 0h3m1 0h1m1 0h1m1 0h2m5 0h3m1 0h1m1 0h1m2 0h2m1 0h1m1 0h2m2 0h1m2 0h4m4 0h4m1 0h1m2 0h2M2 56.5h1m1 0h3m1 0h1m1 0h1m1 0h1m3 0h1m2 0h2m2 0h3m2 0h1m1 0h1m2 0h2m1 0h2m1 0h3m1 0h1m1 0h1m1 0h4m1 0h1m2 0h2M2 57.5h1m5 0h1m4 0h3m1 0h1m5 0h1m4 0h1m3 0h1m3 0h1m1 0h1m5 0h2m1 0h2m1 0h1m1 0h1m5 0h1M2 58.5h7m3 0h5m1 0h9m1 0h2m3 0h1m2 0h6m2 0h1m2 0h1m3 0h2m2 0h2"/></svg>
