<?xml version="1.0" encoding="utf-8"?><!DOCTYPE svg PUBLIC "-//W3C//DTD SVG 1.1//EN" "http://www.w3.org/Graphics/SVG/1.1/DTD/svg11.dtd"><svg xmlns="http://www.w3.org/2000/svg" viewBox="0 0 57 57" shape-rendering="crispEdges"><path fill="#FFFFFF" d="M0 0h57v57H0z"/><path stroke="#0A1539" d="M2 2.5h7m1 0h2m1 0h3m2 0h2m2 0h2m1 0h1m1 0h8m3 0h4m2 0h1m3 0h7M2 3.5h1m5 0h1m1 0h1m1 0h1m3 0h1m4 0h1m2 0h1m1 0h1m2 0h2m3 0h1m1 0h1m1 0h3m3 0h2m2 0h1m5 0h1M2 4.5h1m1 0h3m1 0h1m2 0h3m2 0h1m1 0h1m2 0h1m1 0h2m4 0h1m2 0h1m4 0h2m4 0h1m1 0h1m2 0h1m1 0h3m1 0h1M2 5.5h1m1 0h3m1 0h1m1 0h1m2 0h4m1 0h1m1 0h1m4 0h1m4 0h2m1 0h2m3 0h1m2 0h1m2 0h1m1 0h1m1 0h1m1 0h3m1 0h1M2 6.5h1m1 0h3m1 0h1m1 0h2m3 0h1m2 0h5m1 0h1m1 0h7m2 0h2m3 0h2m1 0h2m3 0h1m1 0h3m1 0h1M2 7.5h1m5 0h1m1 0h2m2 0h2m4 0h1m2 0h2m1 0h1m3 0h1m2 0h2m2 0h2m5 0h1m3 0h1m5 0h1M2 8.5h7m1 0h1m1 0h1m1 0h1m1 0h1m1 0h1m1 0h1m1 0h1m1 0h1m1 0h1m1 0h1m1 0h1m1 0h1m1 0h1m1 0h1m1 0h1m1 0h1m1 0h1m1 0h1m1 0h1m1 0h7M11 9.5h1m4 0h4m1 0h1m2 0h1m1 0h1m3 0h3m1 0h1m1 0h1m2 0h2m2 0h1m1 0h2M5 10.5h1m2 0h1m2 0h2m3 0h1m5 0h2m1 0h7m1 0h1m4 0h2m1 0h2m1 0h3m2 0h3m1 0h2M6 11.5h1m3 0h1m1 0h1m1 0h6m2 0h5m3 0h2m5 0h3m2 0h1m2 0h1m1 0h1m1 0h2m1 0h3M4 12.5h1m1 0h5m3 0h1m2 0h2m2 0h1m1 0h2m1 0h1m2 0h1m1 0h2m2 0h2m1 0h1m2 0h3m3 0h3m3 0h1M3 13.5h1m1 0h2m6 0h2m3 0h1m1 0h1m1 0h1m1 0h4m3 0h1m3 0h1m2 0h4m3 0h2m3 0h1m1 0h3M3 14.5h1m1 0h1m2 0h2m3 0h1m1 0h1m1 0h2m5 0h1m2 0h1m1 0h1m1 0h2m1 0h6m1 0h1m1 0h1m1 0h4m1 0h2m2 0h1M5 15.5h3m3 0h1m2 0h1m1 0h1m1 0h5m1 0h4m2 0h2m4 0h2m1 0h1m1 0h1m5 0h5m1 0h1M3 16.5h1m1 0h2m1 0h1m1 0h1m2 0h1m1 0h1m1 0h2m2 0h1m3 0h1m2 0h2m2 0h2m1 0h4m1 0h2m1 0h1m1 0h1m2 0h3m2 0h2M2 17.5h3m4 0h15m1 0h2m3 0h2m2 0h3m1 0h1m1 0h3m2 0h1m3 0h2m2 0h1M5 18.5h1m1 0h2m1 0h1m1 0h3m2 0h1m1 0h3m4 0h2m1 0h1m1 0h2m3 0h3m2 0h1m2 0h2m3 0h3m1 0h1M5 19.5h1m3 0h1m1 0h1m1 0h8m2 0h2m1 0h2m1 0h2m2 0h2m1 0h3m1 0h2m1 0h1m2 0h1m2 0h2m1 0h3M2 20.5h1m2 0h1m2 0h3m1 0h1m1 0h1m1 0h4m1 0h1m1 0h2m3 0h5m1 0h1m2 0h1m1 0h1m1 0h2m2 0h3m1 0h1m2 0h3M5 21.5h1m3 0h2m2 0h2m6 0h1m1 0h1m1 0h1m2 0h1m4 0h1m7 0h1m3 0h1m1 0h2m1 0h2m2 0h1M3 22.5h1m2 0h1m1 0h2m4 0h4m3 0h2m1 0h1m2 0h4m1 0h2m2 0h4m1 0h6m3 0h1m1 0h1M2 23.5h1m2 0h2m4 0h1m1 0h3m1 0h3m1 0h3m2 0h2m1 0h1m1 0h2m2 0h1m3 0h1m2 0h1m4 0h1m2 0h5M4 24.5h2m2 0h1m2 0h1m1 0h1m1 0h2m1 0h6m2 0h1m1 0h1m2 0h4m3 0h1m1 0h3m3 0h4m2 0h2M3 25.5h1m2 0h2m2 0h2m6 0h1m1 0h1m1 0h1m2 0h6m1 0h1m1 0h1m1 0h3m1 0h5m1 0h1m1 0h1m1 0h1m1 0h1m1 0h1M2 26.5h1m1 0h1m1 0h6m1 0h4m1 0h4m3 0h6m1 0h1m2 0h1m2 0h5m3 0h5m2 0h1M2 27.5h1m1 0h1m1 0h1m3 0h1m1 0h2m2 0h2m1 0h2m1 0h3m1 0h1m3 0h1m1 0h3m2 0h3m2 0h1m2 0h2m3 0h1m1 0h2M3 28.5h2m1 0h1m1 0h1m1 0h1m1 0h2m2 0h6m1 0h1m2 0h1m1 0h1m1 0h5m2 0h2m1 0h4m1 0h2m1 0h1m1 0h2m1 0h2M3 29.5h2m1 0h1m3 0h10m2 0h2m2 0h1m3 0h1m1 0h1m5 0h1m1 0h1m1 0h1m1 0h3m3 0h1M3 30.5h1m2 0h6m6 0h4m2 0h7m1 0h2m2 0h4m1 0h1m4 0h5M2 31.5h1m4 0h1m5 0h2m12 0h1m1 0h1m1 0h4m1 0h2m2 0h1m2 0h3m1 0h1m1 0h1m1 0h1m2 0h1M3 32.5h1m1 0h4m4 0h2m3 0h1m1 0h1m1 0h1m2 0h1m2 0h1m3 0h2m1 0h3m1 0h1m1 0h1m2 0h1m1 0h1m1 0h3m1 0h3M6 33.5h2m1 0h2m1 0h4m6 0h1m5 0h1m2 0h2m1 0h6m3 0h5m3 0h1M2 34.5h2m1 0h1m2 0h5m1 0h1m3 0h1m3 0h3m1 0h1m3 0h5m3 0h2m2 0h2m3 0h2m2 0h2m1 0h1M3 35.5h5m2 0h1m2 0h2m2 0h1m2 0h3m5 0h1m1 0h1m1 0h4m1 0h1m3 0h1m1 0h1m8 0h1m1 0h1M3 36.5h1m4 0h2m1 0h4m3 0h3m6 0h1m1 0h1m1 0h1m3 0h1m2 0h1m6 0h3m1 0h2m2 0h1M2 37.5h1m1 0h2m1 0h1m2 0h4m1 0h1m3 0h2m2 0h1m2 0h2m3 0h1m1 0h1m1 0h6m1 0h1m1 0h1m3 0h2m2 0h1M2 38.5h2m2 0h3m4 0h2m1 0h1m1 0h1m1 0h2m2 0h3m3 0h3m1 0h1m1 0h3m2 0h4m1 0h2m1 0h1m1 0h1m1 0h2M2 39.5h1m1 0h2m4 0h10m1 0h2m1 0h2m1 0h1m1 0h1m3 0h2m2 0h2m6 0h2m1 0h1m5 0h1M2 40.5h1m3 0h1m1 0h1m3 0h2m5 0h2m2 0h2m3 0h1m1 0h1m2 0h1m1 0h1m2 0h1m1 0h1m1 0h1m2 0h1m1 0h8M5 41.5h3m2 0h4m1 0h2m1 0h1m1 0h4m1 0h1m6 0h1m4 0h2m1 0h4m3 0h2M2 42.5h2m1 0h2m1 0h2m1 0h8m2 0h2m2 0h1m3 0h2m1 0h3m1 0h3m1 0h1m3 0h4m1 0h1m1 0h1m1 0h2M2 43.5h1m2 0h2m4 0h4m1 0h2m1 0h1m3 0h1m2 0h2m1 0h1m1 0h1m1 0h2m5 0h1m1 0h2m2 0h4m1 0h2m1 0h1M2 44.5h2m1 0h5m3 0h2m1 0h4m1 0h1m1 0h1m2 0h1m1 0h1m1 0h6m1 0h3m1 0h1m1 0h1m3 0h3m1 0h1m1 0h2M3 45.5h2m8 0h3m2 0h1m2 0h1m2 0h6m5 0h1m1 0h2m3 0h1m2 0h2m2 0h1m1 0h1m2 0h1M5 46.5h1m2 0h1m5 0h8m1 0h1m2 0h6m3 0h1m2 0h2m2 0h1m1 0h1m1 0h5m1 0h3M10 47.5h2m1 0h1m1 0h2m5 0h1m2 0h2m3 0h1m1 0h2m1 0h4m4 0h1m1 0h2m3 0h1m1 0h1m1 0h1M2 48.5h7m5 0h1m2 0h7m2 0h1m1 0h1m1 0h1m4 0h5m3 0h1m1 0h2m1 0h1m1 0h1m1 0h2M2 49.5h1m5 0h1m4 0h1m3 0h1m5 0h2m1 0h1m3 0h4m1 0h1m2 0h1m1 0h1m1 0h1m1 0h3m3 0h1m1 0h1M2 50.5h1m1 0h3m1 0h1m4 0h1m4 0h1m1 0h2m1 0h8m1 0h2m1 0h10m1 0h7M2 51.5h1m1 0h3m1 0h1m1 0h3m6 0h4m4 0h1m4 0h1m3 0h4m2 0h1m6 0h3m2 0h1M2 52.5h1m1 0h3m1 0h1m3 0h1m2 0h3m2 0h1m2 0h1m1 0h1m3 0h1m4 0h3m2 0h2m4 0h4m1 0h2m1 0h2M2 53.5h1m5 0h1m3 0h1m1 0h1m1 0h3m3 0h1m1 0h3m1 0h4m2 0h2m1 0h1m2 0h1m3 0h3m3 0h1m2 0h1M2 54.5h7m2 0h1m1 0h1m2 0h1m2 0h3m1 0h1m1 0h2m1 0h2m1 0h3m2 0h2m1 0h1m1 0h1m1 0h2m2 0h4m2 0h1"/></svg>
